# xmcd
#
# Track frame offsets: 
#        150
#        9430
#        23817
#        35265
#        49240
#        63752
#        75855
#        84855
#        94550
#        105607
#        117820
#        129162
#        139800
#        151707
#        162667
#        172612
#        184290
#        197542
#        208462
#        223647
#        234605
#        246165
#        254562
#        268915
#        282235
#        295215
#
# Disc length: 4109 seconds
#
# Revision: 4
# Processed by: cddbd v1.5.2PL0 Copyright (c) Steve Scherf et al.
# Submitted via: ExactAudioCopy v1.3
#
DISCID=61100b1a
DTITLE=Frankie Laine - The Original Recordings
DYEAR=1997
DGENRE=Vocal
TTITLE0=Rawhide
TTITLE1=Jezebel
TTITLE2=Rose, Rose, I Love You
TTITLE3=The Girl In The Wood
TTITLE4=Jealousy
TTITLE5=High Noon
TTITLE6=Sugarbush (With Doris Day)
TTITLE7=I Believe
TTITLE8=Your Cheatin' Heart
TTITLE9=The Rock Of Gibraltar
TTITLE10=Where The Wind Blows
TTITLE11=Hey Joe
TTITLE12=Answer Me
TTITLE13=There's A Rainbow 'Round My Shoulder
TTITLE14=Tell Me A Story (With Jimmy Boyd)
TTITLE15=Blowing Wild (The Ballad Of Black Gold)
TTITLE16=Granada
TTITLE17=The Gandy's Dancers' Ball
TTITLE18=The Kid's Last Fight
TTITLE19=My Friend
TTITLE20=The Ruby And The Pearl
TTITLE21=Setting The Woods On Fire (With  Jo Stafford)
TTITLE22=There Must Be A Reason
TTITLE23=The Mermaid
TTITLE24=When You're In Love
TTITLE25=Rain, Rain, Rain
EXTD=
EXTT0=
EXTT1=
EXTT2=
EXTT3=
EXTT4=
EXTT5=
EXTT6=
EXTT7=
EXTT8=
EXTT9=
EXTT10=
EXTT11=
EXTT12=
EXTT13=
EXTT14=
EXTT15=
EXTT16=
EXTT17=
EXTT18=
EXTT19=
EXTT20=
EXTT21=
EXTT22=
EXTT23=
EXTT24=
EXTT25=
PLAYORDER=
